<svg xmlns="http://www.w3.org/2000/svg" xmlns:xlink="http://www.w3.org/1999/xlink" version="1.1" x="0px" y="0px" viewBox="0 0 100 125" enable-background="new 0 0 100 100" xml:space="preserve"><g><g><g><g><g><rect x="34.683" y="14.926" width="30.635" height="3.967"/><g><polygon points="40.468,20.655 44.765,20.655 44.765,43.248 40.468,40.216       "/></g><path d="M56.937,50.576c0,1.836-1.488,3.324-3.324,3.324h-7.227c-1.836,0-3.324-1.488-3.324-3.324l0,0       c0-1.836,1.488-3.326,3.324-3.326h7.227C55.448,47.25,56.937,48.74,56.937,50.576L56.937,50.576z"/><g><polygon points="59.532,20.655 55.233,20.655 55.233,43.248 59.532,40.216       "/><polygon points="53.358,20.656 53.358,45.006 49.999,46.621 46.64,45.006 46.64,20.656       "/></g></g></g></g></g><g><path fill="none" d="M50.213,63.776c0.605,0,1.18,0.124,1.719,0.318L50,58.662l-1.955,5.5l-5.273-2.506l2.508,5.271l-5.5,1.956    l5.5,1.956l-2.508,5.271l5.273-2.506l1.955,5.5l1.932-5.433c-0.539,0.194-1.113,0.318-1.719,0.318    c-2.816,0-5.107-2.291-5.107-5.107S47.396,63.776,50.213,63.776z"/><path fill="none" d="M55.32,68.884c0,0.663-0.135,1.292-0.367,1.872l5.268-1.872l-5.268-1.872    C55.186,67.592,55.32,68.221,55.32,68.884z"/><path fill="none" d="M54.82,66.718l2.406-5.062l-5.195,2.47C53.264,64.6,54.262,65.531,54.82,66.718z"/><path fill="none" d="M52.031,73.642l5.195,2.47L54.82,71.05C54.262,72.236,53.264,73.168,52.031,73.642z"/><path d="M66.189,68.884l-8.711-3.099l3.969-8.35l-8.35,3.969L50,52.693l-3.098,8.712l-8.352-3.97l3.971,8.351l-8.711,3.098    l8.711,3.098l-3.971,8.351l8.352-3.97L50,85.074l3.098-8.711l8.35,3.969l-3.969-8.35L66.189,68.884z M60.221,68.884l-5.268,1.872    c0.232-0.58,0.367-1.209,0.367-1.872s-0.135-1.292-0.367-1.872L60.221,68.884z M57.227,61.656l-2.406,5.062    c-0.559-1.187-1.557-2.118-2.789-2.592L57.227,61.656z M50.213,73.991c0.605,0,1.18-0.124,1.719-0.318L50,79.105l-1.955-5.5    l-5.273,2.506l2.508-5.271l-5.5-1.956l5.5-1.956l-2.508-5.271l5.273,2.506l1.955-5.5l1.932,5.433    c-0.539-0.194-1.113-0.318-1.719-0.318c-2.816,0-5.107,2.291-5.107,5.107S47.396,73.991,50.213,73.991z M52.031,73.642    c1.232-0.474,2.23-1.405,2.789-2.592l2.406,5.062L52.031,73.642z"/></g></g></svg>
