<svg xmlns="http://www.w3.org/2000/svg" xmlns:xlink="http://www.w3.org/1999/xlink" version="1.1" x="0px" y="0px" viewBox="0 0 100 125" style="enable-background:new 0 0 100 100;" xml:space="preserve"><path d="M45.1,35.4l-9.6,10.9C35.1,46.8,34.6,47,34,47s-1.1-0.2-1.5-0.7l-9.6-10.9c-1.9-2.2-2.4-5.2-1.3-8c1-2.5,3.1-4.2,5.7-4.4  c0.2,0,0.5,0,0.7,0c2.4,0,4.5,1.1,6,2.8c1.5-1.7,3.6-2.8,6-2.8c0.2,0,0.5,0,0.7,0c2.6,0.2,4.7,1.9,5.7,4.4  C47.5,30.2,47,33.3,45.1,35.4z M78.4,27.5c-1-2.5-3.1-4.2-5.7-4.4c-0.2,0-0.5,0-0.7,0c-2.4,0-4.5,1.1-6,2.8c-1.5-1.7-3.6-2.8-6-2.8  c-0.2,0-0.5,0-0.7,0c-2.6,0.2-4.7,1.9-5.7,4.4c-1.1,2.7-0.6,5.8,1.3,8l9.6,10.9c0.4,0.4,0.9,0.7,1.5,0.7s1.1-0.2,1.5-0.7l9.6-10.9  C79,33.3,79.5,30.2,78.4,27.5z M24.8,53c-0.2,0-0.5,0-0.7,0c-2.4,0-4.5,1.1-6,2.8c-1.5-1.7-3.6-2.8-6-2.8c-0.2,0-0.5,0-0.7,0  c-2.6,0.2-4.7,1.9-5.7,4.4c-1.1,2.7-0.6,5.8,1.3,8l9.6,10.9c0.4,0.4,0.9,0.7,1.5,0.7s1.1-0.2,1.5-0.7l9.6-10.9  c1.9-2.2,2.4-5.2,1.3-8C29.5,54.9,27.3,53.3,24.8,53z M56.8,53c-0.2,0-0.5,0-0.7,0c-2.4,0-4.5,1.1-6,2.8c-1.5-1.7-3.6-2.8-6-2.8  c-0.2,0-0.5,0-0.7,0c-2.6,0.2-4.7,1.9-5.7,4.4c-1.1,2.7-0.6,5.8,1.3,8l9.6,10.9c0.4,0.4,0.9,0.7,1.5,0.7s1.1-0.2,1.5-0.7l9.6-10.9  c1.9-2.2,2.4-5.2,1.3-8C61.5,54.9,59.3,53.3,56.8,53z M94.4,57.5c-1-2.5-3.1-4.2-5.7-4.4c-0.2,0-0.5,0-0.7,0c-2.4,0-4.5,1.1-6,2.8  c-1.5-1.7-3.6-2.8-6-2.8c-0.2,0-0.5,0-0.7,0c-2.6,0.2-4.7,1.9-5.7,4.4c-1.1,2.7-0.6,5.8,1.3,8l9.6,10.9c0.4,0.4,0.9,0.7,1.5,0.7  s1.1-0.2,1.5-0.7l9.6-10.9C95,63.3,95.5,60.2,94.4,57.5z"/></svg>
