<svg xmlns="http://www.w3.org/2000/svg" xmlns:xlink="http://www.w3.org/1999/xlink" version="1.1" x="0px" y="0px" viewBox="0 0 96 120" enable-background="new 0 0 96 96" xml:space="preserve"><path d="M13.212,87.449c0,2.093,1.703,3.796,3.796,3.796h2.031c2.093,0,3.796-1.703,3.796-3.796V74.364h5.838v-5.054h-4.188v-57.49  l-6.462-7.467l-6.461,7.467v57.49H7.374v5.054h5.838V87.449z"/><path d="M75.707,16.073v6.611h-0.986c-0.974,0-1.766,0.792-1.766,1.766v0.68c0,0.973,0.792,1.765,1.766,1.765h0.986v1.973h-0.986  c-0.974,0-1.766,0.792-1.766,1.765v0.67c0,0.974,0.792,1.766,1.766,1.766h0.986v1.972h-0.986c-0.974,0-1.766,0.792-1.766,1.766v0.68  c0,0.973,0.792,1.765,1.766,1.765h0.986v48.202c0,2.093,1.703,3.796,3.796,3.796h2.031c2.093,0,3.796-1.703,3.796-3.796V39.252  h0.986c0.974,0,1.766-0.792,1.766-1.765v-0.68c0-0.974-0.792-1.766-1.766-1.766H85.33v-1.972h0.986c0.974,0,1.766-0.792,1.766-1.766  v-0.67c0-0.973-0.792-1.765-1.766-1.765H85.33v-1.973h0.986c0.974,0,1.766-0.792,1.766-1.765v-0.68c0-0.974-0.792-1.766-1.766-1.766  H85.33v-6.611h-0.175l3.606-4.559L85.378,4.75h-9.727l-3.382,6.764l3.606,4.559H75.707z"/><path d="M69.542,59.27V21.819h-40V59.27l20,18.954L69.542,59.27z M46.829,43.106l2.714-5.498l2.712,5.498l6.067,0.881l-4.389,4.279  l1.036,6.043l-5.426-2.853l-5.426,2.853l1.035-6.043l-4.39-4.279L46.829,43.106z"/><text x="0" y="111" fill="#000000" font-size="5px" font-weight="bold" font-family="'Helvetica Neue', Helvetica, Arial-Unicode, Arial, Sans-serif"></text><text x="0" y="116" fill="#000000" font-size="5px" font-weight="bold" font-family="'Helvetica Neue', Helvetica, Arial-Unicode, Arial, Sans-serif"></text></svg>
