<svg xmlns="http://www.w3.org/2000/svg" viewBox="0 0 100 125" x="0px" y="0px"><title></title><path d="M84.83,23.27,68,27.23l-17.84-4h-.07l-.09,0-.1,0h-.07L33,27.23l-17.84-4a.75.75,0,0,0-.91.73V72a.74.74,0,0,0,.59.73l18,4h.07l.09,0,.1,0h.07l16.83-4,17.84,4,.16,0,.17,0,17-4a.75.75,0,0,0,.58-.73V24a.74.74,0,0,0-.28-.59A.77.77,0,0,0,84.83,23.27ZM33.75,41.79a6.12,6.12,0,0,1,3.18,1,.76.76,0,0,0,.43.14.75.75,0,0,0,.43-1.36,7.61,7.61,0,0,0-4-1.31V28.59L49.25,25V55.24h-.19a.76.76,0,0,0-.74.76.74.74,0,0,0,.75.74h.18V71.41l-15.5,3.64Zm33.5-10c-.54.08-1.1.19-1.67.33a.75.75,0,0,0,.17,1.48l.19,0c.44-.12.88-.2,1.31-.28v9.89L64,40A.75.75,0,0,0,63,40L57.5,45.44l-1-1a.75.75,0,0,0-1.06,0l-4.72,4.72V24.94l16.5,3.66ZM50.75,56.72c.77,0,1.56,0,2.38-.07a.75.75,0,0,0-.06-1.5c-.81,0-1.57.06-2.32.07V50.7a.7.7,0,0,0,.25,0,.74.74,0,0,0,.53-.22L56,46.06l1,1,2.5,2.5a.75.75,0,0,0,1.06,0,.75.75,0,0,0,0-1.06l-2-2,4.94-4.94,3.75,3.75v7.38a25,25,0,0,1-2.4.8A.76.76,0,0,0,65.06,55a.69.69,0,0,0,.2,0c.69-.2,1.35-.42,2-.65V75.06L50.75,71.4Zm-35-31.78,16.5,3.66V75.06L15.75,71.4Zm68.5,46.47-15.5,3.64V53.7l.41-.17a.75.75,0,0,0-.41-1.42v-19c.31,0,.61,0,.89,0h.1a.71.71,0,0,0,.71-.75.79.79,0,0,0-.79-.75c-.29,0-.61,0-.91.06v-3L84.25,25Z"/><path d="M22.12,63.26H22a2.94,2.94,0,1,0,.12,0Zm-.12,4A1.25,1.25,0,0,1,20.75,66a1.23,1.23,0,0,1,.52-1c0,.63,0,1,0,1a.75.75,0,0,0,1.5,0s0-.36,0-1A1.23,1.23,0,0,1,22,67.25Z"/><path d="M57.47,37.53a.75.75,0,0,0,1.06,0l1-1,1,1a.75.75,0,0,0,1.06,0,.75.75,0,0,0,0-1.06l-.93-.93c.29-.14.81-.4,1.5-.68a.75.75,0,0,0,.41-1,.75.75,0,0,0-1-.41h0a.75.75,0,0,0-1.06,0l-1,1-1-1a.75.75,0,0,0-1.06,1.06l1,1-1,1A.75.75,0,0,0,57.47,37.53Z"/><path d="M73.25,33.9a5.26,5.26,0,0,1,2.25,2.64.75.75,0,0,0,.7.46.71.71,0,0,0,.28-.06.75.75,0,0,0,.41-1A6.76,6.76,0,0,0,74,32.6a.75.75,0,1,0-.75,1.3Z"/><path d="M76.23,40.22c0,.25,0,.51,0,.78a13.22,13.22,0,0,1-.33,3,.75.75,0,0,0,.55.91l.18,0a.77.77,0,0,0,.73-.58A15.11,15.11,0,0,0,77.75,41c0-.29,0-.58,0-.85a.76.76,0,0,0-.78-.72A.75.75,0,0,0,76.23,40.22Z"/><path d="M57.12,56.38h.08c1.42-.13,2.79-.31,4-.53A.75.75,0,0,0,61,54.36c-1.23.21-2.56.39-4,.52a.75.75,0,0,0,.07,1.5Z"/><path d="M25.24,47.5a.75.75,0,0,0-1,.42A32.5,32.5,0,0,0,23,51.85a.74.74,0,0,0,.54.91.55.55,0,0,0,.18,0,.75.75,0,0,0,.73-.56,30.09,30.09,0,0,1,1.21-3.75A.75.75,0,0,0,25.24,47.5Z"/><path d="M41.62,48.88a27.46,27.46,0,0,0-1.19-3.8.75.75,0,0,0-1.38.59,26.82,26.82,0,0,1,1.12,3.59l0,.16a.74.74,0,0,0,.72.56.58.58,0,0,0,.19,0,.75.75,0,0,0,.54-.91Z"/><path d="M72.31,51.54a.74.74,0,0,0,.46-.16,13.14,13.14,0,0,0,2.92-3.1.75.75,0,1,0-1.25-.83,11.76,11.76,0,0,1-2.59,2.75.75.75,0,0,0-.14,1A.76.76,0,0,0,72.31,51.54Z"/><path d="M30.37,41.49a.76.76,0,0,0-1-.28,10,10,0,0,0-3.13,3,.75.75,0,0,0,.19,1,.76.76,0,0,0,.43.14.72.72,0,0,0,.61-.32,8.33,8.33,0,0,1,2.65-2.54A.76.76,0,0,0,30.37,41.49Z"/><path d="M41.55,53.39a5.64,5.64,0,0,0,3.29,3,1,1,0,0,0,.23,0A.75.75,0,0,0,45.31,55a4.08,4.08,0,0,1-2.41-2.29.75.75,0,0,0-1-.33A.76.76,0,0,0,41.55,53.39Z"/><path d="M22.36,60.74a.75.75,0,0,0,.74-.68c.14-1.36.32-2.69.53-4a.75.75,0,1,0-1.47-.25c-.22,1.29-.4,2.65-.55,4a.75.75,0,0,0,.67.82Z"/><path d="M45.47,63.53a.75.75,0,0,0,1.06,0,.75.75,0,0,0,0-1.06l-2-2,0,0a.74.74,0,0,0-.22-.14h0s0,0,0,0a.59.59,0,0,0-.23,0H44a.58.58,0,0,0-.18,0l-.08,0a.66.66,0,0,0-.22.15l-2,2a.73.73,0,0,0-.17.77l-1.55-1.55v-.88l.72.72a.75.75,0,0,0,1.06,0,.75.75,0,0,0,0-1.06l-2-2,0,0a.74.74,0,0,0-.22-.14h0s0,0,0,0a.59.59,0,0,0-.23,0H39a.58.58,0,0,0-.18,0l-.08,0a.66.66,0,0,0-.22.15l-2,2a.75.75,0,0,0,1.06,1.06l.72-.72v.88l-1.78,1.78a.75.75,0,0,0,1.06,1.06l.72-.72v.88l-.78.78a.75.75,0,0,0,1.06,1.06l.72-.72v.88l-1.78,1.78a.75.75,0,0,0,1.06,1.06l.72-.72V70a.75.75,0,0,0,1.5,0V68.81l.72.72a.75.75,0,0,0,1.06,0,.75.75,0,0,0,0-1.06l-1.78-1.78v-.88l.72.72a.75.75,0,0,0,1.06,0l.72-.72V67a.75.75,0,0,0,1.5,0V65.81l.72.72a.75.75,0,0,0,1.06,0,.75.75,0,0,0,0-1.06l-1.78-1.78v-.88ZM42,64.94l-.45-.45a.71.71,0,0,0,.1-.84.74.74,0,0,0,.88-.12l.72-.72v.88Z"/><path d="M23.75,36.69V33.31L25,32.06l1.25,1.25V36a.75.75,0,0,0,1.5,0V33a.75.75,0,0,0-.22-.53l-2-2a.75.75,0,0,0-1.06,0l-2,2a.75.75,0,0,0-.22.53v.19l-.72-.72a.75.75,0,0,0-1.06,0l-2,2a.75.75,0,0,0-.22.53v3a.75.75,0,0,0,1.5,0V35.31L21,34.06l1.25,1.25v1.38l-1.78,1.78a.75.75,0,0,0-.22.53v3a.75.75,0,0,0,1.5,0V39.31l.76-.76a.7.7,0,0,0,1,0l.76.76V42a.75.75,0,0,0,1.5,0V39a.75.75,0,0,0-.22-.53Z"/><path d="M43.65,28.63a.75.75,0,0,0-1.35.09l-1.57,4-1.2-1.2a.74.74,0,0,0-.65-.21.76.76,0,0,0-.55.4l-2,4a.74.74,0,0,0,.33,1,.84.84,0,0,0,.34.08.75.75,0,0,0,.67-.41l1.54-3.07,1.26,1.26a.72.72,0,0,0,.68.2.76.76,0,0,0,.55-.45l1.42-3.56,3.23,5.65a.75.75,0,1,0,1.3-.74Z"/><path d="M58,61.25c-3,0-3.75,3.11-3.75,4.75,0,1.3.57,3.75,2.75,3.75a2.18,2.18,0,0,0,2.17-1.41c.23-.47.29-.59.83-.59,1.93,0,3.75,0,3.75-2.75C63.75,62.65,61.6,61.25,58,61.25Zm2,5a2.18,2.18,0,0,0-2.17,1.41c-.23.47-.29.59-.83.59-1.21,0-1.25-2.19-1.25-2.25s0-3.25,2.25-3.25c1.28,0,4.25.22,4.25,2.25C62.25,66.19,62.15,66.25,60,66.25Z"/><path d="M72.53,63.53,74,62.06l.94.94-1.47,1.47a.75.75,0,0,0,1.06,1.06L76,64.06l1.47,1.47a.74.74,0,0,0,.53.22.69.69,0,0,0,.24,0L77,66.94l-.47-.47a.75.75,0,0,0-1.06,0l-2,2a.75.75,0,0,0,1.06,1.06L76,68.06l1.47,1.47a.75.75,0,0,0,1.06,0,.75.75,0,0,0,0-1.06L78.06,68l.94-.94,1.47,1.47a.75.75,0,0,0,1.06,0,.75.75,0,0,0,0-1.06l-2-2a.74.74,0,0,0-.88-.12.74.74,0,0,0-.12-.88l-1-1L79,62.06l1.47,1.47a.75.75,0,0,0,1.06,0,.75.75,0,0,0,0-1.06L79.76,60.7a.69.69,0,0,0,.24,0,.74.74,0,0,0,.53-.22.75.75,0,0,0,0-1.06L78.76,57.7a.73.73,0,0,0,.77-.17L81,56.06l1.47,1.47a.75.75,0,0,0,1.06,0,.75.75,0,0,0,0-1.06l-2-2a.75.75,0,0,0-1.06,0l-2,2a.74.74,0,0,0-.12.88.74.74,0,0,0-.88.12l-2,2a.75.75,0,0,0,1.06,1.06L78,59.06l1.24,1.24a.73.73,0,0,0-.77.17l-2,2-2-2a.75.75,0,0,0-1.06,0l-2,2a.75.75,0,0,0,1.06,1.06Z"/><text x="0" y="115" fill="#000000" font-size="5px" font-weight="bold" font-family="'Helvetica Neue', Helvetica, Arial-Unicode, Arial, Sans-serif"></text><text x="0" y="120" fill="#000000" font-size="5px" font-weight="bold" font-family="'Helvetica Neue', Helvetica, Arial-Unicode, Arial, Sans-serif"></text></svg>
